<svg xmlns="http://www.w3.org/2000/svg" width="51.602" height="53.494" viewBox="0 0 51.602 53.494">
  <g id="logo-white" transform="translate(136.8 52.473) rotate(-3)" fill="none">
    <path d="M-134-18a12,12,0,0,1,12-12,12,12,0,0,1,12,12A12,12,0,0,1-122-6,12,12,0,0,1-134-18Zm25-13A12,12,0,0,1-97-43,12,12,0,0,1-85-31,12,12,0,0,1-97-19,12,12,0,0,1-109-31Zm-24-14a12,12,0,0,1,12-12,12,12,0,0,1,12,12,12,12,0,0,1-12,12A12,12,0,0,1-133-45Z" stroke="none"/>
    <path d="M -122.0003967285156 -6.000301837921143 C -128.6271209716797 -6.000301837921143 -134.0001220703125 -11.37240219116211 -134.0001220703125 -18.00000190734863 C -134.0001220703125 -24.62760162353516 -128.6271209716797 -29.99970245361328 -122.0003967285156 -29.99970245361328 C -115.3727951049805 -29.99970245361328 -109.9997940063477 -24.62760162353516 -109.9997940063477 -18.00000190734863 C -109.9997940063477 -11.37240219116211 -115.3727951049805 -6.000301837921143 -122.0003967285156 -6.000301837921143 Z M -97.00021362304688 -18.99990272521973 C -103.6277923583984 -18.99990272521973 -108.9998931884766 -24.37290191650391 -108.9998931884766 -30.99960136413574 C -108.9998931884766 -37.62720108032227 -103.6277923583984 -43.00020217895508 -97.00021362304688 -43.00020217895508 C -90.37259674072266 -43.00020217895508 -84.99959564208984 -37.62720108032227 -84.99959564208984 -30.99960136413574 C -84.99959564208984 -24.37290191650391 -90.37259674072266 -18.99990272521973 -97.00021362304688 -18.99990272521973 Z M -120.9995956420898 -33.00030136108398 C -127.627197265625 -33.00030136108398 -133.0001983642578 -38.37240219116211 -133.0001983642578 -45 C -133.0001983642578 -51.62760162353516 -127.627197265625 -56.99970245361328 -120.9995956420898 -56.99970245361328 C -114.3728942871094 -56.99970245361328 -108.9998931884766 -51.62760162353516 -108.9998931884766 -45 C -108.9998931884766 -38.37240219116211 -114.3728942871094 -33.00030136108398 -120.9995956420898 -33.00030136108398 Z" stroke="none" fill="#fff"/>
  </g>
</svg>
